<?xml version="1.0" standalone="no"?>
<!DOCTYPE svg PUBLIC "-//W3C//DTD SVG 20010904//EN"
 "http://www.w3.org/TR/2001/REC-SVG-20010904/DTD/svg10.dtd">
<svg version="1.0" xmlns="http://www.w3.org/2000/svg"
 width="150.000000pt" height="150.000000pt" viewBox="0 0 150.000000 150.000000"
 preserveAspectRatio="xMidYMid meet">
<metadata>
Created by potrace 1.11, written by Peter Selinger 2001-2013
</metadata>
<g transform="translate(0.000000,150.000000) scale(0.100000,-0.100000)"
fill="#000000" stroke="none">
<path d="M669 1486 c-2 -2 -24 -7 -49 -11 -141 -21 -278 -96 -391 -213 -161
-167 -236 -407 -196 -632 21 -123 83 -265 151 -348 23 -28 119 -118 134 -126
9 -5 23 -16 30 -23 28 -27 161 -83 247 -103 186 -44 377 -9 550 101 143 90
277 280 311 440 22 105 26 145 21 219 -18 262 -159 486 -386 612 -52 28 -119
54 -165 64 -90 19 -127 24 -186 24 -37 0 -69 -2 -71 -4z"/>
</g>
</svg>
